<svg id="Camada_1" data-name="Camada 1" xmlns="http://www.w3.org/2000/svg" viewBox="0 0 48 26"><defs><style>.cls-1{fill:#777bb3;}</style></defs><path class="cls-1" d="M25,12C11.54,12,1,17.71,1,25S11.54,38,25,38s24-5.71,24-13S38.46,12,25,12Zm-2.49,4h2.62l-.83,4h2.34a4.51,4.51,0,0,1,3,.73,2.52,2.52,0,0,1,.5,2.49l-1,4.78H26.48l1-4.42a1.48,1.48,0,0,0-.14-1.25A1.83,1.83,0,0,0,26,22h-2.1l-1.27,6H20ZM11,20h5.33c2.55,0,4.08,1.7,3.48,4.25-.7,2.95-2.57,3.75-6,3.75H12.14l-.52,3H9Zm21,0h5.33c2.55,0,4.08,1.7,3.48,4.25-.7,2.95-2.57,3.75-6,3.75H33.14l-.52,3H30ZM13.27,22l-.75,4h1.71c1.48,0,2.85-.17,3.08-2.38.09-.85-.27-1.62-2-1.62Zm21,0-.75,4h1.71c1.48,0,2.85-.17,3.08-2.38.09-.85-.27-1.62-2-1.62Z" transform="translate(-1 -12)"/></svg>