<svg width="111" height="69" viewBox="0 0 111 69" fill="none" xmlns="http://www.w3.org/2000/svg">
<g clip-path="url(#clip0_580_1181)">
<path d="M53.3092 2.00781L37.8257 12.3147L53.316 22.631" stroke="#6F38C5" stroke-width="5" stroke-miterlimit="10" stroke-linejoin="round"/>
<path d="M58.4833 22.631L73.9858 12.3347L58.4901 2.00781" stroke="#6F38C5" stroke-width="5" stroke-miterlimit="10" stroke-linejoin="round"/>
<path d="M42.9811 21.2136C42.9811 21.2136 42.9474 28.2624 42.9474 33.4306C42.9474 38.5988 55.8849 38.5988 55.8849 38.5988C55.8849 38.5988 68.7928 38.6283 68.7886 33.4401C68.7928 28.2624 68.8182 21.2109 68.8182 21.2109" stroke="#6F38C5" stroke-width="5" stroke-miterlimit="10" stroke-linejoin="round"/>
</g>
<path d="M11.6326 58.36C11.4059 59.5333 10.8659 60.48 10.0126 61.2C9.17258 61.92 8.04591 62.28 6.63258 62.28C5.89924 62.28 5.21258 62.1667 4.57258 61.94C3.94591 61.7133 3.39924 61.3867 2.93258 60.96C2.46591 60.5333 2.09924 60.0067 1.83258 59.38C1.56591 58.7533 1.43258 58.04 1.43258 57.24V57C1.43258 56.2 1.56591 55.48 1.83258 54.84C2.09924 54.2 2.46591 53.6533 2.93258 53.2C3.41258 52.7467 3.96591 52.4 4.59258 52.16C5.23258 51.92 5.91258 51.8 6.63258 51.8C8.01924 51.8 9.13925 52.16 9.99258 52.88C10.8592 53.6 11.4059 54.5467 11.6326 55.72L9.15258 56.36C9.07258 55.7733 8.81924 55.2667 8.39258 54.84C7.96591 54.4133 7.36591 54.2 6.59258 54.2C6.23258 54.2 5.89258 54.2667 5.57258 54.4C5.25258 54.5333 4.97258 54.7267 4.73258 54.98C4.49258 55.22 4.29925 55.52 4.15258 55.88C4.01924 56.2267 3.95258 56.62 3.95258 57.06V57.18C3.95258 57.62 4.01924 58.0133 4.15258 58.36C4.29925 58.6933 4.49258 58.9733 4.73258 59.2C4.97258 59.4267 5.25258 59.6 5.57258 59.72C5.89258 59.8267 6.23258 59.88 6.59258 59.88C7.36591 59.88 7.95258 59.6867 8.35258 59.3C8.76591 58.9133 9.03258 58.3933 9.15258 57.74L11.6326 58.36ZM14.1387 59.6H17.6187V50.4H14.2587V48H20.1387V59.6H23.3787V62H14.1387V59.6ZM32.8648 60.56C32.5981 61.1867 32.2248 61.6333 31.7448 61.9C31.2648 62.1533 30.7048 62.28 30.0648 62.28C29.4648 62.28 28.8981 62.1667 28.3648 61.94C27.8448 61.7133 27.3848 61.38 26.9848 60.94C26.5848 60.5 26.2648 59.9667 26.0248 59.34C25.7981 58.7133 25.6848 58 25.6848 57.2V56.88C25.6848 56.0933 25.7981 55.3867 26.0248 54.76C26.2514 54.1333 26.5581 53.6 26.9448 53.16C27.3314 52.72 27.7781 52.3867 28.2848 52.16C28.8048 51.92 29.3581 51.8 29.9448 51.8C30.6514 51.8 31.2181 51.92 31.6448 52.16C32.0848 52.4 32.4314 52.7733 32.6848 53.28H33.0448V52.08H35.5648V59C35.5648 59.4 35.7448 59.6 36.1048 59.6H36.4848V62H34.7648C34.3114 62 33.9381 61.8667 33.6448 61.6C33.3648 61.3333 33.2248 60.9867 33.2248 60.56H32.8648ZM30.6248 59.88C31.3581 59.88 31.9448 59.64 32.3848 59.16C32.8248 58.6667 33.0448 58 33.0448 57.16V56.92C33.0448 56.08 32.8248 55.42 32.3848 54.94C31.9448 54.4467 31.3581 54.2 30.6248 54.2C29.8914 54.2 29.3048 54.4467 28.8648 54.94C28.4248 55.42 28.2048 56.08 28.2048 56.92V57.16C28.2048 58 28.4248 58.6667 28.8648 59.16C29.3048 59.64 29.8914 59.88 30.6248 59.88ZM41.8509 54.88C41.8509 55.2 42.0175 55.4333 42.3509 55.58C42.6842 55.7133 43.2909 55.8267 44.1709 55.92C45.1842 56.0267 46.0109 56.3333 46.6509 56.84C47.2909 57.3333 47.6109 58.0267 47.6109 58.92V59.04C47.6109 60.0267 47.2509 60.8133 46.5309 61.4C45.8109 61.9867 44.7975 62.28 43.4909 62.28C42.7175 62.28 42.0575 62.18 41.5109 61.98C40.9642 61.78 40.5109 61.5333 40.1509 61.24C39.7909 60.9333 39.5109 60.6 39.3109 60.24C39.1242 59.8667 38.9975 59.5067 38.9309 59.16L41.2509 58.4C41.3575 58.8267 41.5775 59.2 41.9109 59.52C42.2575 59.84 42.7842 60 43.4909 60C44.1175 60 44.5442 59.9067 44.7709 59.72C45.0109 59.52 45.1309 59.3067 45.1309 59.08C45.1309 58.9467 45.0975 58.8267 45.0309 58.72C44.9775 58.6 44.8709 58.4933 44.7109 58.4C44.5509 58.2933 44.3309 58.2067 44.0509 58.14C43.7842 58.0733 43.4442 58.02 43.0309 57.98C41.9109 57.8867 41.0175 57.6 40.3509 57.12C39.6975 56.6267 39.3709 55.9067 39.3709 54.96V54.84C39.3709 54.3467 39.4775 53.9133 39.6909 53.54C39.9042 53.1667 40.1842 52.8533 40.5309 52.6C40.8775 52.3333 41.2775 52.1333 41.7309 52C42.1842 51.8667 42.6509 51.8 43.1309 51.8C43.7575 51.8 44.2975 51.88 44.7509 52.04C45.2175 52.1867 45.6109 52.3867 45.9309 52.64C46.2509 52.88 46.5109 53.1533 46.7109 53.46C46.9109 53.7533 47.0642 54.04 47.1709 54.32L44.8909 55.24C44.7709 54.88 44.5642 54.6 44.2709 54.4C43.9775 54.1867 43.5975 54.08 43.1309 54.08C42.7042 54.08 42.3842 54.16 42.1709 54.32C41.9575 54.4667 41.8509 54.6533 41.8509 54.88ZM54.097 54.88C54.097 55.2 54.2636 55.4333 54.597 55.58C54.9303 55.7133 55.537 55.8267 56.417 55.92C57.4303 56.0267 58.257 56.3333 58.897 56.84C59.537 57.3333 59.857 58.0267 59.857 58.92V59.04C59.857 60.0267 59.497 60.8133 58.777 61.4C58.057 61.9867 57.0436 62.28 55.737 62.28C54.9636 62.28 54.3036 62.18 53.757 61.98C53.2103 61.78 52.757 61.5333 52.397 61.24C52.037 60.9333 51.757 60.6 51.557 60.24C51.3703 59.8667 51.2436 59.5067 51.177 59.16L53.497 58.4C53.6036 58.8267 53.8236 59.2 54.157 59.52C54.5036 59.84 55.0303 60 55.737 60C56.3636 60 56.7903 59.9067 57.017 59.72C57.257 59.52 57.377 59.3067 57.377 59.08C57.377 58.9467 57.3436 58.8267 57.277 58.72C57.2236 58.6 57.117 58.4933 56.957 58.4C56.797 58.2933 56.577 58.2067 56.297 58.14C56.0303 58.0733 55.6903 58.02 55.277 57.98C54.157 57.8867 53.2636 57.6 52.597 57.12C51.9436 56.6267 51.617 55.9067 51.617 54.96V54.84C51.617 54.3467 51.7236 53.9133 51.937 53.54C52.1503 53.1667 52.4303 52.8533 52.777 52.6C53.1236 52.3333 53.5236 52.1333 53.977 52C54.4303 51.8667 54.897 51.8 55.377 51.8C56.0036 51.8 56.5436 51.88 56.997 52.04C57.4636 52.1867 57.857 52.3867 58.177 52.64C58.497 52.88 58.757 53.1533 58.957 53.46C59.157 53.7533 59.3103 54.04 59.417 54.32L57.137 55.24C57.017 54.88 56.8103 54.6 56.517 54.4C56.2236 54.1867 55.8436 54.08 55.377 54.08C54.9503 54.08 54.6303 54.16 54.417 54.32C54.2036 54.4667 54.097 54.6533 54.097 54.88Z" fill="white"/>
<path d="M72.863 58.36C72.6364 59.5333 72.0964 60.48 71.243 61.2C70.403 61.92 69.2764 62.28 67.863 62.28C67.1297 62.28 66.443 62.1667 65.803 61.94C65.1764 61.7133 64.6297 61.3867 64.163 60.96C63.6964 60.5333 63.3297 60.0067 63.063 59.38C62.7964 58.7533 62.663 58.04 62.663 57.24V57C62.663 56.2 62.7964 55.48 63.063 54.84C63.3297 54.2 63.6964 53.6533 64.163 53.2C64.643 52.7467 65.1964 52.4 65.823 52.16C66.463 51.92 67.143 51.8 67.863 51.8C69.2497 51.8 70.3697 52.16 71.223 52.88C72.0897 53.6 72.6364 54.5467 72.863 55.72L70.383 56.36C70.303 55.7733 70.0497 55.2667 69.623 54.84C69.1964 54.4133 68.5964 54.2 67.823 54.2C67.463 54.2 67.123 54.2667 66.803 54.4C66.483 54.5333 66.203 54.7267 65.963 54.98C65.723 55.22 65.5297 55.52 65.383 55.88C65.2497 56.2267 65.183 56.62 65.183 57.06V57.18C65.183 57.62 65.2497 58.0133 65.383 58.36C65.5297 58.6933 65.723 58.9733 65.963 59.2C66.203 59.4267 66.483 59.6 66.803 59.72C67.123 59.8267 67.463 59.88 67.823 59.88C68.5964 59.88 69.183 59.6867 69.583 59.3C69.9964 58.9133 70.263 58.3933 70.383 57.74L72.863 58.36ZM85.1491 57.16C85.1491 57.9867 85.0091 58.72 84.7291 59.36C84.4491 59.9867 84.0691 60.52 83.5891 60.96C83.1091 61.3867 82.5558 61.7133 81.9291 61.94C81.3158 62.1667 80.6691 62.28 79.9891 62.28C79.3091 62.28 78.6558 62.1667 78.0291 61.94C77.4158 61.7133 76.8691 61.3867 76.3891 60.96C75.9091 60.52 75.5291 59.9867 75.2491 59.36C74.9691 58.72 74.8291 57.9867 74.8291 57.16V56.92C74.8291 56.1067 74.9691 55.3867 75.2491 54.76C75.5291 54.12 75.9091 53.58 76.3891 53.14C76.8691 52.7 77.4158 52.3667 78.0291 52.14C78.6558 51.9133 79.3091 51.8 79.9891 51.8C80.6691 51.8 81.3158 51.9133 81.9291 52.14C82.5558 52.3667 83.1091 52.7 83.5891 53.14C84.0691 53.58 84.4491 54.12 84.7291 54.76C85.0091 55.3867 85.1491 56.1067 85.1491 56.92V57.16ZM79.9891 59.88C80.3491 59.88 80.6891 59.82 81.0091 59.7C81.3291 59.58 81.6091 59.4067 81.8491 59.18C82.0891 58.9533 82.2758 58.68 82.4091 58.36C82.5558 58.0267 82.6291 57.6533 82.6291 57.24V56.84C82.6291 56.4267 82.5558 56.06 82.4091 55.74C82.2758 55.4067 82.0891 55.1267 81.8491 54.9C81.6091 54.6733 81.3291 54.5 81.0091 54.38C80.6891 54.26 80.3491 54.2 79.9891 54.2C79.6291 54.2 79.2891 54.26 78.9691 54.38C78.6491 54.5 78.3691 54.6733 78.1291 54.9C77.8891 55.1267 77.6958 55.4067 77.5491 55.74C77.4158 56.06 77.3491 56.4267 77.3491 56.84V57.24C77.3491 57.6533 77.4158 58.0267 77.5491 58.36C77.6958 58.68 77.8891 58.9533 78.1291 59.18C78.3691 59.4067 78.6491 59.58 78.9691 59.7C79.2891 59.82 79.6291 59.88 79.9891 59.88ZM94.7952 60.56H94.4352C94.3286 60.7867 94.1952 61.0067 94.0352 61.22C93.8886 61.42 93.6886 61.6 93.4352 61.76C93.1952 61.92 92.9019 62.0467 92.5552 62.14C92.2219 62.2333 91.8152 62.28 91.3352 62.28C90.7219 62.28 90.1486 62.1733 89.6152 61.96C89.0952 61.7333 88.6352 61.4067 88.2352 60.98C87.8486 60.54 87.5419 60.0067 87.3152 59.38C87.1019 58.7533 86.9952 58.0333 86.9952 57.22V56.86C86.9952 56.06 87.1086 55.3467 87.3352 54.72C87.5752 54.0933 87.8952 53.5667 88.2952 53.14C88.7086 52.7 89.1819 52.3667 89.7152 52.14C90.2619 51.9133 90.8352 51.8 91.4352 51.8C92.2352 51.8 92.8686 51.9533 93.3352 52.26C93.8019 52.5533 94.1686 52.9733 94.4352 53.52H94.7952V48H97.3152V62H94.7952V60.56ZM92.1552 59.88C92.9419 59.88 93.5752 59.6333 94.0552 59.14C94.5486 58.6333 94.7952 57.9733 94.7952 57.16V56.92C94.7952 56.1067 94.5486 55.4533 94.0552 54.96C93.5752 54.4533 92.9419 54.2 92.1552 54.2C91.3686 54.2 90.7286 54.4467 90.2352 54.94C89.7552 55.42 89.5152 56.08 89.5152 56.92V57.16C89.5152 58 89.7552 58.6667 90.2352 59.16C90.7286 59.64 91.3686 59.88 92.1552 59.88ZM102.141 57.86C102.155 58.1533 102.221 58.4267 102.341 58.68C102.475 58.92 102.648 59.1333 102.861 59.32C103.088 59.4933 103.341 59.6333 103.621 59.74C103.915 59.8333 104.221 59.88 104.541 59.88C105.168 59.88 105.648 59.7733 105.981 59.56C106.315 59.3333 106.555 59.0667 106.701 58.76L108.861 59.96C108.741 60.2133 108.575 60.48 108.361 60.76C108.148 61.0267 107.868 61.2733 107.521 61.5C107.188 61.7267 106.775 61.9133 106.281 62.06C105.801 62.2067 105.235 62.28 104.581 62.28C103.835 62.28 103.155 62.16 102.541 61.92C101.928 61.68 101.395 61.3333 100.941 60.88C100.501 60.4267 100.155 59.8733 99.9013 59.22C99.6613 58.5667 99.5413 57.8267 99.5413 57V56.88C99.5413 56.12 99.668 55.4267 99.9213 54.8C100.188 54.1733 100.548 53.64 101.001 53.2C101.455 52.76 101.981 52.42 102.581 52.18C103.195 51.9267 103.848 51.8 104.541 51.8C105.395 51.8 106.128 51.9533 106.741 52.26C107.355 52.5533 107.861 52.9333 108.261 53.4C108.661 53.8533 108.955 54.36 109.141 54.92C109.328 55.4667 109.421 56 109.421 56.52V57.86H102.141ZM104.521 54.08C103.881 54.08 103.361 54.2467 102.961 54.58C102.561 54.9 102.301 55.2733 102.181 55.7H106.861C106.781 55.2333 106.528 54.8467 106.101 54.54C105.688 54.2333 105.161 54.08 104.521 54.08Z" fill="#6F38C5"/>
<defs>
<clipPath id="clip0_580_1181">
<rect width="45" height="40.8139" fill="white" transform="translate(33)"/>
</clipPath>
</defs>
</svg>
